<svg version="1.1" id="Layer_1" xmlns="http://www.w3.org/2000/svg" xmlns:xlink="http://www.w3.org/1999/xlink" x="0px" y="0px"
	 width="100%" viewBox="0 0 200 200" enable-background="new 0 0 200 200" xml:space="preserve">
<path fill="#FDFDFD" opacity="1.000000" stroke="none" 
	d="
M113.000000,201.000000 
	C75.356575,201.000000 38.213150,201.000000 1.034861,201.000000 
	C1.034861,134.398285 1.034861,67.796532 1.034861,1.097392 
	C67.559921,1.097392 134.120041,1.097392 200.840073,1.097392 
	C200.840073,67.666359 200.840073,134.333145 200.840073,201.000000 
	C171.796814,201.000000 142.648407,201.000000 113.000000,201.000000 
M45.386307,95.388191 
	C47.242523,95.100464 49.098740,94.812737 50.954960,94.525009 
	C50.889992,94.038803 50.825024,93.552589 50.760056,93.066383 
	C45.894249,93.066383 41.028439,93.066383 36.162632,93.066383 
	C36.109001,93.523293 36.055370,93.980194 36.001740,94.437103 
	C38.006931,94.948410 40.012119,95.459717 41.964325,96.899879 
	C41.964325,100.875519 41.964325,104.851151 41.964325,108.826790 
	C42.824127,108.870285 43.683933,108.913780 44.543736,108.957268 
	C44.609348,104.619019 44.674961,100.280762 45.386307,95.388191 
M141.782639,101.272079 
	C140.665985,98.898582 139.766647,96.381355 138.334717,94.216408 
	C137.685928,93.235519 135.868912,92.351418 134.789597,92.550385 
	C133.963135,92.702713 132.984055,94.592224 132.906296,95.764359 
	C132.664230,99.413414 132.744705,103.091377 132.874146,106.751976 
	C132.904434,107.608551 133.621643,108.440834 134.022812,109.284302 
	C134.478973,109.219017 134.935120,109.153732 135.391281,109.088448 
	C135.567535,105.345428 135.743790,101.602402 135.920044,97.859375 
	C136.298065,97.764824 136.676086,97.670265 137.054108,97.575714 
	C138.184113,99.380859 139.314117,101.185997 140.131165,103.657120 
	C141.885101,105.740105 142.607697,109.510475 146.732361,107.690956 
	C146.732361,102.752441 146.732361,97.812180 146.732361,92.871925 
	C146.262100,92.826996 145.791840,92.782066 145.321579,92.737137 
	C145.087112,96.501038 144.852631,100.264938 144.584961,104.561531 
	C143.534790,103.285500 142.922714,102.541786 141.782639,101.272079 
M49.222023,71.843002 
	C46.777225,71.843002 44.332428,71.843002 42.047184,71.843002 
	C40.318909,78.984543 36.355400,81.625717 31.880987,78.507973 
	C27.767620,75.641785 26.361238,78.886078 24.100662,80.795319 
	C21.473181,83.014450 22.977884,84.708977 24.530256,86.677322 
	C26.610321,89.314774 24.765535,94.771309 21.542749,95.055122 
	C17.839495,95.381241 16.816614,97.138809 16.765289,100.539070 
	C16.710363,104.177879 17.328558,106.488312 21.717436,106.859764 
	C25.028049,107.139969 26.672455,113.165718 24.267464,115.558922 
	C22.077217,117.738434 22.177147,119.670670 24.473473,121.392624 
	C26.549988,122.949738 27.640833,127.097610 31.666702,124.097290 
	C36.066513,120.818283 39.784657,122.447617 41.403259,127.508484 
	C41.884468,129.013062 44.240849,130.904327 45.707893,130.878937 
	C47.980827,130.839584 50.692638,129.811005 52.361610,128.272461 
	C54.210712,126.567886 55.096554,123.818382 56.722752,120.959824 
	C55.676910,119.590462 54.760109,117.483498 50.575630,118.583519 
	C47.146870,119.484879 42.695007,118.032646 39.131329,116.566933 
	C31.363237,113.371986 27.506054,103.785896 30.103600,95.637695 
	C32.693676,87.512932 41.244404,82.037979 49.441704,83.679565 
	C53.444763,84.481216 56.030613,83.615097 56.729301,80.011215 
	C54.877773,77.850075 53.732311,75.509926 52.356808,73.313858 
	C51.928574,72.630165 50.877705,72.336449 49.222023,71.843002 
M166.235855,100.299515 
	C163.570938,99.672424 160.906036,99.045341 158.241119,98.418259 
	C158.031845,99.204514 157.822571,99.990776 157.613297,100.777031 
	C159.574677,101.376312 161.536057,101.975594 163.843689,102.680664 
	C162.636124,108.693237 158.410767,104.878853 155.327545,105.852966 
	C155.327545,102.323792 154.218857,97.676979 155.557907,96.809784 
	C158.362534,94.993469 162.456192,95.167564 166.480499,94.441292 
	C165.936966,93.675972 165.513077,92.486099 164.984818,92.437798 
	C162.676620,92.226746 160.336456,92.402573 158.011032,92.333038 
	C155.018036,92.243530 152.498749,93.031845 152.328995,96.443481 
	C152.123016,100.583038 150.164566,105.711212 154.789566,108.216629 
	C157.387650,109.624039 161.257294,108.832573 164.539536,108.692314 
	C165.133118,108.666954 165.972290,107.048485 166.140640,106.069633 
	C166.418762,104.452629 166.242966,102.757553 166.235855,100.299515 
M108.165192,99.254166 
	C108.165192,102.534424 108.165192,105.814690 108.165192,109.094948 
	C108.735138,109.091270 109.305077,109.087593 109.875023,109.083916 
	C110.129837,106.799767 110.384644,104.515610 110.604660,102.543396 
	C114.505623,100.952515 120.645103,104.788940 120.985764,97.543625 
	C121.063148,95.897766 119.209366,93.101524 117.693001,92.637688 
	C113.023117,91.209267 108.679901,92.563652 107.900452,95.175148 
	C110.644524,95.175148 113.287476,95.025131 115.895355,95.261673 
	C116.736038,95.337921 117.484444,96.431427 118.275063,97.059555 
	C117.527161,97.746864 116.835976,98.933746 116.020554,99.026329 
	C113.720879,99.287437 111.370186,99.099098 108.165192,99.254166 
M91.380066,92.482269 
	C89.203026,94.910912 88.967209,105.478256 91.739357,110.213974 
	C92.068306,106.832863 92.288452,104.570114 92.502243,102.372620 
	C95.093094,102.372620 97.496826,102.372620 99.875618,102.372620 
	C99.986542,104.771645 100.082146,106.839470 100.177757,108.907288 
	C100.671707,108.952682 101.165657,108.998085 101.659607,109.043480 
	C104.680267,104.593246 102.467484,99.263412 102.959145,94.403221 
	C103.009880,93.901604 101.459892,93.238052 99.934647,92.126282 
	C99.934647,95.056839 99.934647,96.818398 99.934647,98.673630 
	C97.233818,98.673630 94.869904,98.673630 92.456085,98.673630 
	C92.276672,96.581924 92.122513,94.784584 91.380066,92.482269 
M78.304024,95.158653 
	C80.561050,95.158653 82.818085,95.158653 85.075111,95.158653 
	C79.685661,91.921783 73.844307,92.445290 72.784576,95.039261 
	C71.081253,99.208542 72.343498,107.232590 74.895767,108.460014 
	C77.893356,109.901596 83.897438,108.783005 85.015450,106.265457 
	C81.707649,106.058922 78.520691,105.859924 75.131790,105.648323 
	C75.131790,102.553894 74.942101,100.048988 75.232574,97.601059 
	C75.337128,96.719978 76.596497,95.975937 78.304024,95.158653 
M58.280357,108.668091 
	C67.031342,109.345009 67.031342,109.345009 67.332687,105.963417 
	C64.527649,104.304588 59.785271,107.691483 57.643818,102.424522 
	C59.291695,102.274475 60.289940,102.296936 61.230476,102.074936 
	C63.355213,101.573425 65.451447,100.951149 67.559273,100.377991 
	C65.488243,99.952339 63.405754,99.145721 61.349392,99.207588 
	C59.270161,99.270134 57.216808,100.192802 55.152119,100.738693 
	C55.940212,103.265114 56.728302,105.791542 58.280357,108.668091 
M125.753944,104.173744 
	C125.977531,105.838600 126.201126,107.503456 126.424713,109.168304 
	C126.807037,109.100464 127.189362,109.032623 127.571686,108.964783 
	C127.571686,103.460037 127.571686,97.955292 127.571686,92.450546 
	C126.965775,92.447807 126.359871,92.445061 125.753960,92.442314 
	C125.753960,96.051498 125.753960,99.660675 125.753944,104.173744 
M63.191525,95.210136 
	C64.769897,94.979202 66.348267,94.748268 67.926636,94.517342 
	C67.869019,94.046837 67.811401,93.576340 67.753784,93.105835 
	C63.522808,93.105835 59.291832,93.105835 55.060856,93.105835 
	C55.016094,93.668617 54.971336,94.231400 54.926575,94.794189 
	C57.394711,94.932617 59.862843,95.071053 63.191525,95.210136 
z"/>
<path fill="#E3A835" opacity="1.000000" stroke="none" 
	d="
M49.666946,71.853607 
	C50.877705,72.336449 51.928574,72.630165 52.356808,73.313858 
	C53.732311,75.509926 54.877773,77.850075 56.729301,80.011215 
	C56.030613,83.615097 53.444763,84.481216 49.441704,83.679565 
	C41.244404,82.037979 32.693676,87.512932 30.103600,95.637695 
	C27.506054,103.785896 31.363237,113.371986 39.131329,116.566933 
	C42.695007,118.032646 47.146870,119.484879 50.575630,118.583519 
	C54.760109,117.483498 55.676910,119.590462 56.722752,120.959824 
	C55.096554,123.818382 54.210712,126.567886 52.361610,128.272461 
	C50.692638,129.811005 47.980827,130.839584 45.707893,130.878937 
	C44.240849,130.904327 41.884468,129.013062 41.403259,127.508484 
	C39.784657,122.447617 36.066513,120.818283 31.666702,124.097290 
	C27.640833,127.097610 26.549988,122.949738 24.473473,121.392624 
	C22.177147,119.670670 22.077217,117.738434 24.267464,115.558922 
	C26.672455,113.165718 25.028049,107.139969 21.717436,106.859764 
	C17.328558,106.488312 16.710363,104.177879 16.765289,100.539070 
	C16.816614,97.138809 17.839495,95.381241 21.542749,95.055122 
	C24.765535,94.771309 26.610321,89.314774 24.530256,86.677322 
	C22.977884,84.708977 21.473181,83.014450 24.100662,80.795319 
	C26.361238,78.886078 27.767620,75.641785 31.880987,78.507973 
	C36.355400,81.625717 40.318909,78.984543 42.047184,71.843002 
	C44.332428,71.843002 46.777225,71.843002 49.666946,71.853607 
z"/>
<path fill="#272727" opacity="1.000000" stroke="none" 
	d="
M166.247147,100.697449 
	C166.242966,102.757553 166.418762,104.452629 166.140640,106.069633 
	C165.972290,107.048485 165.133118,108.666954 164.539536,108.692314 
	C161.257294,108.832573 157.387650,109.624039 154.789566,108.216629 
	C150.164566,105.711212 152.123016,100.583038 152.328995,96.443481 
	C152.498749,93.031845 155.018036,92.243530 158.011032,92.333038 
	C160.336456,92.402573 162.676620,92.226746 164.984818,92.437798 
	C165.513077,92.486099 165.936966,93.675972 166.480499,94.441292 
	C162.456192,95.167564 158.362534,94.993469 155.557907,96.809784 
	C154.218857,97.676979 155.327545,102.323792 155.327545,105.852966 
	C158.410767,104.878853 162.636124,108.693237 163.843689,102.680664 
	C161.536057,101.975594 159.574677,101.376312 157.613297,100.777031 
	C157.822571,99.990776 158.031845,99.204514 158.241119,98.418259 
	C160.906036,99.045341 163.570938,99.672424 166.247147,100.697449 
z"/>
<path fill="#191919" opacity="1.000000" stroke="none" 
	d="
M108.602394,99.171036 
	C111.370186,99.099098 113.720879,99.287437 116.020554,99.026329 
	C116.835976,98.933746 117.527161,97.746864 118.275070,97.059555 
	C117.484444,96.431427 116.736038,95.337921 115.895355,95.261673 
	C113.287476,95.025131 110.644524,95.175148 107.900452,95.175148 
	C108.679901,92.563652 113.023117,91.209267 117.693001,92.637688 
	C119.209366,93.101524 121.063148,95.897766 120.985764,97.543625 
	C120.645103,104.788940 114.505623,100.952515 110.604660,102.543396 
	C110.384644,104.515610 110.129837,106.799767 109.875023,109.083916 
	C109.305077,109.087593 108.735138,109.091270 108.165192,109.094948 
	C108.165192,105.814690 108.165192,102.534424 108.602394,99.171036 
z"/>
<path fill="#070707" opacity="1.000000" stroke="none" 
	d="
M91.674210,92.734756 
	C92.122513,94.784584 92.276672,96.581924 92.456085,98.673630 
	C94.869904,98.673630 97.233818,98.673630 99.934647,98.673630 
	C99.934647,96.818398 99.934647,95.056839 99.934647,92.126282 
	C101.459892,93.238052 103.009880,93.901604 102.959145,94.403221 
	C102.467484,99.263412 104.680267,104.593246 101.659607,109.043480 
	C101.165657,108.998085 100.671707,108.952682 100.177757,108.907288 
	C100.082146,106.839470 99.986542,104.771645 99.875618,102.372620 
	C97.496826,102.372620 95.093094,102.372620 92.502243,102.372620 
	C92.288452,104.570114 92.068306,106.832863 91.739357,110.213974 
	C88.967209,105.478256 89.203026,94.910912 91.674210,92.734756 
z"/>
<path fill="#161616" opacity="1.000000" stroke="none" 
	d="
M77.816437,95.164001 
	C76.596497,95.975937 75.337128,96.719978 75.232574,97.601059 
	C74.942101,100.048988 75.131790,102.553894 75.131790,105.648323 
	C78.520691,105.859924 81.707649,106.058922 85.015450,106.265457 
	C83.897438,108.783005 77.893356,109.901596 74.895767,108.460014 
	C72.343498,107.232590 71.081253,99.208542 72.784576,95.039261 
	C73.844307,92.445290 79.685661,91.921783 85.075111,95.158653 
	C82.818085,95.158653 80.561050,95.158653 77.816437,95.164001 
z"/>
<path fill="#2B2B2B" opacity="1.000000" stroke="none" 
	d="
M140.444122,102.991150 
	C139.314117,101.185997 138.184113,99.380859 137.054108,97.575714 
	C136.676086,97.670265 136.298065,97.764824 135.920044,97.859375 
	C135.743790,101.602402 135.567535,105.345428 135.391281,109.088448 
	C134.935120,109.153732 134.478973,109.219017 134.022812,109.284302 
	C133.621643,108.440834 132.904434,107.608551 132.874146,106.751976 
	C132.744705,103.091377 132.664230,99.413414 132.906296,95.764359 
	C132.984055,94.592224 133.963135,92.702713 134.789597,92.550385 
	C135.868912,92.351418 137.685928,93.235519 138.334717,94.216408 
	C139.766647,96.381355 140.665985,98.898582 141.823166,101.703087 
	C141.390503,102.419777 140.917313,102.705460 140.444122,102.991150 
z"/>
<path fill="#202020" opacity="1.000000" stroke="none" 
	d="
M57.898376,108.493027 
	C56.728302,105.791542 55.940212,103.265114 55.152119,100.738693 
	C57.216808,100.192802 59.270161,99.270134 61.349392,99.207588 
	C63.405754,99.145721 65.488243,99.952339 67.559273,100.377991 
	C65.451447,100.951149 63.355213,101.573425 61.230476,102.074936 
	C60.289940,102.296936 59.291695,102.274475 57.643818,102.424522 
	C59.785271,107.691483 64.527649,104.304588 67.332291,105.964447 
	C67.031342,109.345009 67.031342,109.345009 57.898376,108.493027 
z"/>
<path fill="#070707" opacity="1.000000" stroke="none" 
	d="
M125.753952,103.721802 
	C125.753960,99.660675 125.753960,96.051498 125.753960,92.442314 
	C126.359871,92.445061 126.965775,92.447807 127.571686,92.450546 
	C127.571686,97.955292 127.571686,103.460037 127.571686,108.964783 
	C127.189362,109.032623 126.807037,109.100464 126.424713,109.168304 
	C126.201126,107.503456 125.977531,105.838600 125.753952,103.721802 
z"/>
<path fill="#373737" opacity="1.000000" stroke="none" 
	d="
M42.017307,95.971024 
	C40.012119,95.459717 38.006931,94.948410 36.001740,94.437103 
	C36.055370,93.980194 36.109001,93.523293 36.162632,93.066383 
	C41.028439,93.066383 45.894249,93.066383 50.760056,93.066383 
	C50.825024,93.552589 50.889992,94.038803 50.954960,94.525009 
	C49.098740,94.812737 47.242523,95.100464 44.803963,95.557777 
	C43.486847,95.808586 42.752075,95.889809 42.017307,95.971024 
z"/>
<path fill="#070707" opacity="1.000000" stroke="none" 
	d="
M140.287643,103.324135 
	C140.917313,102.705460 141.390503,102.419777 142.087158,101.966080 
	C142.922714,102.541786 143.534790,103.285500 144.584961,104.561531 
	C144.852631,100.264938 145.087112,96.501038 145.321579,92.737137 
	C145.791840,92.782066 146.262100,92.826996 146.732361,92.871925 
	C146.732361,97.812180 146.732361,102.752441 146.732361,107.690956 
	C142.607697,109.510475 141.885101,105.740105 140.287643,103.324135 
z"/>
<path fill="#2F2F2F" opacity="1.000000" stroke="none" 
	d="
M62.761253,95.209808 
	C59.862843,95.071053 57.394711,94.932617 54.926575,94.794189 
	C54.971336,94.231400 55.016094,93.668617 55.060856,93.105835 
	C59.291832,93.105835 63.522808,93.105835 67.753784,93.105835 
	C67.811401,93.576340 67.869019,94.046837 67.926636,94.517342 
	C66.348267,94.748268 64.769897,94.979202 62.761253,95.209808 
z"/>
<path fill="#020202" opacity="1.000000" stroke="none" 
	d="
M41.990814,96.435455 
	C42.752075,95.889809 43.486847,95.808586 44.481094,95.834938 
	C44.674961,100.280762 44.609348,104.619019 44.543736,108.957268 
	C43.683933,108.913780 42.824127,108.870285 41.964325,108.826790 
	C41.964325,104.851151 41.964325,100.875519 41.990814,96.435455 
z"/>
</svg>